
<svg width="190" height="168" viewBox="0 0 190 168" fill="none" xmlns="http://www.w3.org/2000/svg">
<path d="M96.216 167.626C148.012 167.626 190 165.001 190 161.762C190 158.523 148.012 155.897 96.216 155.897C44.4203 155.897 2.43164 158.523 2.43164 161.762C2.43164 165.001 44.4203 167.626 96.216 167.626Z" fill="#CAE6FE"/>
<path d="M173.632 55.6776C173.632 56.1791 173.425 56.6365 173.088 56.9675C172.755 57.3005 172.293 57.505 171.785 57.505H132.261C131.246 57.505 130.415 56.683 130.415 55.6776C130.415 55.1761 130.621 54.7187 130.958 54.3877C131.291 54.0547 131.754 53.8502 132.261 53.8502H134.129C134.867 52.1557 136.571 50.9713 138.554 50.9713C139.889 50.9713 141.096 51.5088 141.971 52.3752C143.135 50.4234 145.282 49.1126 147.741 49.1126C148.417 49.1126 149.068 49.2135 149.682 49.397C150.968 47.007 153.51 45.3799 156.44 45.3799C159.958 45.3799 162.918 47.728 163.812 50.9232C164.46 50.6027 165.191 50.4196 165.967 50.4196C168.162 50.4196 170.013 51.8674 170.595 53.8506H171.785C172.8 53.8502 173.632 54.6722 173.632 55.6776Z" fill="#CAE6FE"/>
<path d="M37.2535 23.8471C37.2535 24.2794 37.075 24.6736 36.7847 24.9589C36.4977 25.2459 36.0989 25.4223 35.6614 25.4223H1.59207C0.717197 25.4223 0 24.7139 0 23.8471C0 23.4148 0.178452 23.0206 0.468806 22.7353C0.755345 22.4483 1.15464 22.2719 1.59207 22.2719H3.20237C3.83861 20.8111 5.30733 19.7902 7.01682 19.7902C8.16764 19.7902 9.20783 20.2535 9.9619 21C10.9656 19.3176 12.8167 18.1878 14.9361 18.1878C15.5189 18.1878 16.0793 18.2749 16.6087 18.4328C17.7171 16.3725 19.9081 14.97 22.434 14.97C25.4672 14.97 28.0185 16.9938 28.7887 19.7483C29.3474 19.4722 29.9781 19.3143 30.647 19.3143C32.5387 19.3143 34.1342 20.5623 34.6361 22.2719H35.6618C36.5367 22.2719 37.2535 22.9808 37.2535 23.8471Z" fill="#CAE6FE"/>
<path d="M100.648 15.406C100.648 15.8442 100.467 16.2434 100.173 16.5325C99.8821 16.8232 99.4781 17.0021 99.0347 17.0021H64.5127C63.6259 17.0021 62.8994 16.2841 62.8994 15.406C62.8994 14.9678 63.08 14.5685 63.3746 14.2795C63.6649 13.9887 64.0693 13.8099 64.5127 13.8099H66.1442C66.7885 12.3298 68.2767 11.295 70.0091 11.295C71.1751 11.295 72.2293 11.7642 72.9931 12.5212C74.01 10.8166 75.8857 9.67166 78.0334 9.67166C78.6239 9.67166 79.1919 9.76006 79.7285 9.92009C80.8518 7.83256 83.072 6.41113 85.6314 6.41113C88.7049 6.41113 91.2901 8.46221 92.0705 11.2527C92.6368 10.9729 93.2755 10.8128 93.9537 10.8128C95.8705 10.8128 97.4872 12.0776 97.9958 13.8099H99.0352C99.9211 13.8099 100.648 14.5279 100.648 15.406Z" fill="#CAE6FE"/>
<path d="M175.177 44.6243C176.462 44.6243 177.507 45.6578 177.507 46.928C177.507 48.1982 176.462 49.2317 175.177 49.2317C173.891 49.2317 172.846 48.1982 172.846 46.928C172.846 45.6578 173.891 44.6243 175.177 44.6243ZM175.177 45.3469C174.295 45.3469 173.577 46.0562 173.577 46.928C173.577 47.7998 174.295 48.509 175.177 48.509C176.059 48.509 176.776 47.7998 176.776 46.928C176.776 46.0562 176.059 45.3469 175.177 45.3469Z" fill="#2A365C"/>
<path d="M172.805 32.915C174.09 32.915 175.136 33.9485 175.136 35.2187C175.136 36.4889 174.09 37.5224 172.805 37.5224C171.52 37.5224 170.474 36.4889 170.474 35.2187C170.474 33.9485 171.52 32.915 172.805 32.915ZM172.805 33.6381C171.923 33.6381 171.205 34.3474 171.205 35.2192C171.205 36.0909 171.923 36.8002 172.805 36.8002C173.687 36.8002 174.405 36.0909 174.405 35.2192C174.405 34.3474 173.687 33.6381 172.805 33.6381Z" fill="#45A9EA"/>
<path d="M165.715 29.6709C165.715 29.8703 165.878 30.0324 166.081 30.0324H167.693C167.895 30.0324 168.059 29.8707 168.059 29.6709C168.059 29.4715 167.895 29.3093 167.693 29.3093H166.081C165.879 29.3097 165.715 29.4715 165.715 29.6709Z" fill="#45A9EA"/>
<path d="M162.893 29.6709C162.893 29.8703 163.057 30.0324 163.259 30.0324H164.871C165.073 30.0324 165.237 29.8707 165.237 29.6709C165.237 29.4715 165.073 29.3093 164.871 29.3093H163.259C163.057 29.3097 162.893 29.4715 162.893 29.6709Z" fill="#45A9EA"/>
<path d="M165.11 27.4343V28.8658C165.11 29.0652 165.274 29.2273 165.476 29.2273C165.678 29.2273 165.842 29.0656 165.842 28.8658V27.4343C165.842 27.2349 165.678 27.0728 165.476 27.0728C165.274 27.0728 165.11 27.2345 165.11 27.4343Z" fill="#45A9EA"/>
<path d="M165.11 30.476V31.9075C165.11 32.1069 165.274 32.2686 165.476 32.2686C165.678 32.2686 165.842 32.1069 165.842 31.9075V30.476C165.842 30.2766 165.678 30.1145 165.476 30.1145C165.274 30.1149 165.11 30.2766 165.11 30.476Z" fill="#45A9EA"/>
<path d="M168.344 41.9758C168.344 42.1752 168.508 42.3373 168.71 42.3373H170.322C170.524 42.3373 170.688 42.1756 170.688 41.9758C170.688 41.7764 170.524 41.6143 170.322 41.6143H168.71C168.508 41.6143 168.344 41.7764 168.344 41.9758Z" fill="#45A9EA"/>
<path d="M165.523 41.9758C165.523 42.1752 165.687 42.3373 165.889 42.3373H167.501C167.703 42.3373 167.867 42.1756 167.867 41.9758C167.867 41.7764 167.703 41.6143 167.501 41.6143H165.889C165.687 41.6143 165.523 41.7764 165.523 41.9758Z" fill="#45A9EA"/>
<path d="M167.74 39.7387V41.1702C167.74 41.3696 167.903 41.5318 168.106 41.5318C168.307 41.5318 168.471 41.37 168.471 41.1702V39.7387C168.471 39.5393 168.308 39.3772 168.106 39.3772C167.904 39.3776 167.74 39.5393 167.74 39.7387Z" fill="#45A9EA"/>
<path d="M167.74 42.781V44.2125C167.74 44.4119 167.903 44.574 168.106 44.574C168.307 44.574 168.471 44.4123 168.471 44.2125V42.781C168.471 42.5816 168.308 42.4194 168.106 42.4194C167.904 42.4199 167.74 42.5816 167.74 42.781Z" fill="#45A9EA"/>
<path d="M18.6266 55.7825C18.6266 57.0527 17.5809 58.0862 16.2957 58.0862C15.0105 58.0862 13.9648 57.0527 13.9648 55.7825C13.9648 54.5123 15.0105 53.4788 16.2957 53.4788C17.5809 53.4788 18.6266 54.5123 18.6266 55.7825ZM17.8954 55.7825C17.8954 54.9107 17.1778 54.2014 16.2957 54.2014C15.4136 54.2014 14.696 54.9107 14.696 55.7825C14.696 56.6543 15.4136 57.3635 16.2957 57.3635C17.1778 57.3635 17.8954 56.6547 17.8954 55.7825Z" fill="#45A9EA"/>
<path d="M28.1418 52.6748C28.1418 53.945 27.0961 54.9785 25.8109 54.9785C24.5257 54.9785 23.48 53.945 23.48 52.6748C23.48 51.4046 24.5257 50.3711 25.8109 50.3711C27.0961 50.3707 28.1418 51.4042 28.1418 52.6748ZM27.4106 52.6748C27.4106 51.803 26.6929 51.0938 25.8109 51.0938C24.9288 51.0938 24.2112 51.803 24.2112 52.6748C24.2112 53.5466 24.9288 54.2558 25.8109 54.2558C26.6929 54.2558 27.4106 53.5466 27.4106 52.6748Z" fill="#2A365C"/>
<path d="M28.44 42.7844C28.2383 42.7844 28.0742 42.9461 28.0742 43.146V44.7396C28.0742 44.9394 28.2378 45.1011 28.44 45.1011C28.6422 45.1011 28.8058 44.9394 28.8058 44.7396V43.146C28.8058 42.9461 28.6418 42.7844 28.44 42.7844Z" fill="#45A9EA"/>
<path d="M28.44 39.9951C28.2383 39.9951 28.0742 40.1568 28.0742 40.3567V41.9503C28.0742 42.1497 28.2378 42.3118 28.44 42.3118C28.6422 42.3118 28.8058 42.1501 28.8058 41.9503V40.3567C28.8058 40.1572 28.6418 39.9951 28.44 39.9951Z" fill="#45A9EA"/>
<path d="M30.7033 42.1865H29.255C29.0532 42.1865 28.8892 42.3482 28.8892 42.5481C28.8892 42.7475 29.0528 42.9096 29.255 42.9096H30.7033C30.9051 42.9096 31.0691 42.7479 31.0691 42.5481C31.0687 42.3482 30.9051 42.1865 30.7033 42.1865Z" fill="#45A9EA"/>
<path d="M27.6252 42.1865H26.1768C25.9751 42.1865 25.811 42.3482 25.811 42.5481C25.811 42.7475 25.9747 42.9096 26.1768 42.9096H27.6252C27.827 42.9096 27.991 42.7479 27.991 42.5481C27.9906 42.3482 27.827 42.1865 27.6252 42.1865Z" fill="#45A9EA"/>
<path d="M18.5592 45.3369C18.3574 45.3369 18.1934 45.4986 18.1934 45.6985V47.2921C18.1934 47.4919 18.357 47.6536 18.5592 47.6536C18.7609 47.6536 18.925 47.4919 18.925 47.2921V45.6985C18.925 45.4986 18.7614 45.3369 18.5592 45.3369Z" fill="#45A9EA"/>
<path d="M18.5592 42.5481C18.3574 42.5481 18.1934 42.7098 18.1934 42.9096V44.5032C18.1934 44.7031 18.357 44.8648 18.5592 44.8648C18.7609 44.8648 18.925 44.7031 18.925 44.5032V42.9096C18.925 42.7098 18.7614 42.5481 18.5592 42.5481Z" fill="#45A9EA"/>
<path d="M20.823 44.739H19.3746C19.1728 44.739 19.0088 44.9007 19.0088 45.1006C19.0088 45.3004 19.1724 45.4621 19.3746 45.4621H20.823C21.0247 45.4621 21.1884 45.3004 21.1884 45.1006C21.1884 44.9011 21.0247 44.739 20.823 44.739Z" fill="#45A9EA"/>
<path d="M17.7448 44.739H16.2965C16.0947 44.739 15.9307 44.9007 15.9307 45.1006C15.9307 45.3004 16.0943 45.4621 16.2965 45.4621H17.7448C17.9466 45.4621 18.1107 45.3004 18.1107 45.1006C18.1102 44.9011 17.9466 44.739 17.7448 44.739Z" fill="#45A9EA"/>
<path d="M26.0717 67.901V75.5942C26.0717 76.0869 25.6686 76.4823 25.1735 76.4823H17.386C17.0444 76.4823 16.7494 76.2967 16.5955 76.0203C16.5803 75.9897 16.5646 75.9595 16.5557 75.9289C16.5404 75.8833 16.5247 75.8376 16.5095 75.789C16.5095 75.7831 16.5065 75.7798 16.5065 75.7739C16.5065 75.7681 16.5035 75.7588 16.5035 75.7526C16.4942 75.701 16.4883 75.6491 16.4883 75.5946V67.9014C16.4883 67.4393 16.8422 67.0652 17.2911 67.0166C17.322 67.0166 17.356 67.0137 17.3865 67.0137H25.1739C25.2663 67.0137 25.3553 67.0258 25.4384 67.0531C25.4384 67.0531 25.4384 67.0531 25.4414 67.0531C25.8072 67.1653 26.0717 67.4996 26.0717 67.901Z" fill="#2A365C"/>
<path d="M21.8476 74.358L21.8413 75.125L20.8553 75.1171L20.8613 74.3844C20.1623 74.3374 19.4854 74.1451 19.0679 73.8862L19.6092 72.7015C20.0686 72.9747 20.6824 73.1527 21.2212 73.1569C21.6895 73.1607 21.8582 73.0651 21.8599 72.8992C21.865 72.291 19.1543 72.7602 19.1692 70.9558C19.1755 70.1749 19.7545 69.5227 20.9028 69.3731L20.9092 68.6199L21.8951 68.6278L21.8892 69.3672C22.4063 69.42 22.9086 69.5553 23.3058 69.7795L22.7997 70.9575C22.319 70.7116 21.8654 70.5905 21.439 70.5872C20.9567 70.5834 20.8015 70.7204 20.8002 70.8863C20.7956 71.4669 23.5058 71.0048 23.491 72.7882C23.4842 73.5348 22.9332 74.1799 21.8476 74.358Z" fill="#FEFDFF"/>
<path d="M179.978 121.345V129.047C179.978 129.54 179.575 129.936 179.079 129.936H171.282C170.94 129.936 170.645 129.75 170.49 129.473C170.475 129.443 170.46 129.412 170.45 129.382C170.435 129.336 170.419 129.291 170.404 129.242C170.404 129.236 170.401 129.233 170.401 129.227C170.401 129.221 170.398 129.212 170.398 129.205C170.389 129.154 170.383 129.102 170.383 129.047V121.345C170.383 120.882 170.737 120.507 171.187 120.459C171.218 120.459 171.252 120.456 171.282 120.456H179.079C179.171 120.456 179.261 120.468 179.344 120.495C179.344 120.495 179.344 120.495 179.347 120.495C179.714 120.608 179.978 120.943 179.978 121.345Z" fill="#45A9EA"/>
<path d="M175.278 122.382C173.621 122.382 172.273 123.715 172.273 125.353C172.273 126.99 173.621 128.323 175.278 128.323C176.935 128.323 178.283 126.99 178.283 125.353C178.283 123.715 176.935 122.382 175.278 122.382ZM175.399 126.449V125.408H176.758C176.749 125.776 176.695 126.126 176.597 126.449H175.399ZM176.25 127.634C176.471 127.358 176.646 127.039 176.772 126.688H177.688C177.301 127.368 176.652 127.846 175.888 128.017C176.017 127.902 176.139 127.774 176.25 127.634ZM176.515 126.688C176.401 126.98 176.251 127.246 176.066 127.479C175.778 127.843 175.49 128.028 175.399 128.081V126.689H176.515V126.688ZM175.399 123.89V122.624C175.435 122.626 175.471 122.628 175.507 122.631C175.657 122.757 176.128 123.188 176.449 123.89H175.399V123.89ZM176.713 123.89C176.605 123.634 176.469 123.389 176.308 123.16C176.191 122.995 176.063 122.839 175.928 122.697C176.619 122.863 177.226 123.292 177.611 123.89H176.713ZM175.399 125.169V124.129H176.547C176.672 124.464 176.742 124.814 176.756 125.169H175.399ZM176.998 125.169C176.985 124.816 176.919 124.466 176.804 124.129H177.749C177.914 124.455 178.011 124.805 178.036 125.169H176.998ZM178.041 125.408C178.033 125.77 177.955 126.12 177.809 126.449H176.849C176.941 126.124 176.991 125.774 176.999 125.408H178.041ZM173.736 126.449H172.748C172.601 126.12 172.523 125.77 172.516 125.408H173.585C173.593 125.774 173.644 126.124 173.736 126.449ZM174.135 123.89C174.228 123.685 174.341 123.487 174.471 123.302C174.724 122.942 174.977 122.715 175.081 122.628C175.106 122.627 175.132 122.625 175.157 122.624V123.89H174.135ZM175.157 124.129V125.169H173.829C173.843 124.815 173.913 124.465 174.037 124.129H175.157ZM172.946 123.89C173.338 123.281 173.958 122.848 174.664 122.689C174.525 122.833 174.395 122.991 174.276 123.16C174.115 123.389 173.979 123.634 173.871 123.89H172.946ZM175.157 125.408V126.449H173.987C173.889 126.127 173.835 125.777 173.827 125.408H175.157ZM172.521 125.169C172.545 124.805 172.642 124.455 172.808 124.129H173.78C173.665 124.466 173.599 124.816 173.586 125.169H172.521ZM173.812 126.688C173.938 127.04 174.114 127.358 174.334 127.634C174.448 127.777 174.572 127.908 174.705 128.024C173.935 127.862 173.258 127.37 172.868 126.688H173.812ZM175.157 126.688V128.064C174.975 127.951 174.404 127.544 174.07 126.688H175.157Z" fill="#FEFDFF"/>
<path d="M117.605 43.3245L118.68 43.6752L119.25 43.8608L120.865 44.3869C120.865 44.3869 144.92 25.1547 138.756 13.6982C136.858 10.1713 131.121 10.3904 127.904 22.1816C124.921 33.1114 117.605 43.3245 117.605 43.3245Z" fill="#ABD3F2"/>
<path d="M118.68 43.6753L119.25 43.8609C124.082 38.8325 127.812 32.8895 130.163 28.6198C132.955 23.5499 134.464 19.676 134.478 19.6375C134.532 19.4992 134.462 19.3438 134.322 19.2919C134.182 19.2387 134.024 19.3078 133.971 19.4456C133.957 19.4846 132.459 23.3312 129.682 28.3709C127.319 32.6616 123.556 38.6519 118.68 43.6753Z" fill="#90C3EF"/>
<path d="M54.8841 144.728L53.8248 144.796L53.2628 144.832L51.6711 144.934C51.6711 144.934 34.4139 121.872 42.7414 112.905C45.305 110.145 50.461 111.679 50.5725 123.134C50.6759 133.753 54.8841 144.728 54.8841 144.728Z" fill="#ABD3F2"/>
<path d="M53.8245 144.796L53.2625 144.832C50.0732 139.142 48.1035 132.878 46.9862 128.453C45.6594 123.2 45.2135 119.332 45.2097 119.294C45.1936 119.156 45.2945 119.031 45.4339 119.016C45.5738 119 45.6997 119.1 45.7154 119.237C45.7196 119.276 46.1626 123.117 47.4825 128.339C48.6062 132.786 50.595 139.101 53.8245 144.796Z" fill="#90C3EF"/>
<path d="M60.2135 148.204L58.9758 149.104L58.3192 149.582L56.4592 150.934C56.4592 150.934 17.1991 136.14 20.2654 118.782C21.2094 113.438 28.7073 111.329 37.8939 125.207C46.41 138.071 60.2135 148.204 60.2135 148.204Z" fill="#CAE6FE"/>
<path d="M58.9759 149.104L58.3193 149.581C49.9351 145.106 42.5842 138.99 37.7266 134.459C31.9585 129.079 28.3581 124.708 28.3234 124.664C28.1945 124.508 28.2191 124.279 28.3776 124.153C28.5353 124.025 28.7676 124.05 28.8956 124.205C28.9316 124.249 32.5062 128.589 38.2416 133.937C43.1238 138.49 50.5382 144.653 58.9759 149.104Z" fill="#ABD3F2"/>
<path d="M112.025 47.0239L113.209 48.1437L113.837 48.7373L115.616 50.4189C115.616 50.4189 159.175 40.0893 158.337 21.3221C158.079 15.5446 150.444 12.2996 138.808 25.7297C128.022 38.179 112.025 47.0239 112.025 47.0239Z" fill="#CAE6FE"/>
<path d="M113.208 48.1438L113.836 48.7374C123.321 45.1401 131.94 39.6684 137.703 35.5353C144.547 30.6275 148.959 26.4931 149.002 26.4516C149.16 26.3041 149.166 26.0582 149.016 25.9032C148.866 25.7474 148.618 25.7415 148.461 25.889C148.417 25.9309 144.036 30.0364 137.231 34.9144C131.438 39.0668 122.746 44.5795 113.208 48.1438Z" fill="#ABD3F2"/>
<path d="M34.0754 34.4657C35.6921 39.1305 40.4582 38.7907 40.5154 42.6289C40.5722 46.4659 43.1298 49.2782 46.4509 48.4403C49.7728 47.6016 52.1698 46.8015 53.8564 50.553C55.5422 54.3045 60.4947 56.0142 62.2987 52.9254C62.7484 52.1567 63.2338 51.3238 63.7085 50.5065C63.8382 50.2832 63.9675 50.0608 64.0947 49.8421C64.1243 49.7914 64.1544 49.7407 64.1833 49.6904C66.0932 46.4031 65.243 42.1832 62.1347 39.9625C60.8762 39.0638 59.396 38.5896 57.7624 39.1376C52.6462 40.8518 54.2994 35.629 51.1245 33.5759C47.4678 31.2102 44.5371 34.1733 42.0138 32.1343C38.5037 29.2986 32.4588 29.8009 34.0754 34.4657Z" fill="#ABD3F2"/>
<path d="M40.3378 36.2578L63.7085 50.5069C63.8382 50.2836 63.9675 50.0611 64.0947 49.8425L40.7451 35.606C40.5629 35.4949 40.3242 35.5507 40.2119 35.7304C40.0991 35.9105 40.1555 36.1468 40.3378 36.2578Z" fill="#90C3EF"/>
<path d="M37.666 8.40652C36.9543 14.4693 42.4613 16.6016 40.4538 20.9187C38.4472 25.2345 39.7862 29.7238 43.9478 30.5386C48.1107 31.353 51.2198 31.7225 51.0791 36.8016C50.9375 41.8807 55.5467 46.4001 59.2285 43.9012C60.1458 43.2799 61.1372 42.605 62.1083 41.9427C62.3736 41.7617 62.6381 41.5816 62.898 41.404C62.9586 41.3633 63.0192 41.3223 63.0785 41.2812C66.9854 38.616 68.313 33.4548 66.0397 29.3359C65.1195 27.6689 63.722 26.3589 61.6013 26.1101C54.9622 25.3284 59.6269 20.3657 57.188 16.3993C54.3798 11.8296 49.5078 13.5946 47.7898 9.98673C45.4009 4.96878 38.3777 2.34377 37.666 8.40652Z" fill="#CAE6FE"/>
<path d="M43.6935 13.7086L62.1083 41.9424C62.3736 41.7614 62.6382 41.5812 62.898 41.4036L44.4997 13.195C44.356 12.975 44.0593 12.9113 43.8368 13.0529C43.6147 13.1954 43.5502 13.4886 43.6935 13.7086Z" fill="#ABD3F2"/>
<path d="M137.98 111.402C133.239 112.936 133.518 117.651 129.634 117.655C125.752 117.66 122.872 120.15 123.675 123.443C124.478 126.737 125.256 129.117 121.437 130.733C117.619 132.348 115.823 137.219 118.923 139.044C119.695 139.499 120.531 139.989 121.351 140.47C121.575 140.601 121.798 140.731 122.018 140.86C122.069 140.89 122.12 140.92 122.17 140.95C125.47 142.881 129.751 142.098 132.04 139.056C132.966 137.825 133.466 136.369 132.933 134.747C131.268 129.668 136.53 131.372 138.65 128.262C141.093 124.68 138.134 121.744 140.231 119.278C143.148 115.848 142.722 109.867 137.98 111.402Z" fill="#ABD3F2"/>
<path d="M136.083 117.566L121.352 140.47C121.576 140.601 121.799 140.732 122.019 140.86L136.737 117.977C136.852 117.799 136.799 117.562 136.618 117.448C136.438 117.335 136.198 117.388 136.083 117.566Z" fill="#90C3EF"/>
<path d="M156.009 121.176C149.885 120.391 147.653 125.804 143.313 123.763C138.973 121.721 134.414 122.984 133.533 127.086C132.653 131.189 132.238 134.256 127.101 134.049C121.964 133.84 117.329 138.335 119.808 142.007C120.424 142.922 121.093 143.911 121.75 144.879C121.93 145.144 122.109 145.408 122.285 145.667C122.325 145.728 122.366 145.788 122.407 145.847C125.051 149.744 130.255 151.126 134.452 148.935C136.151 148.048 137.495 146.684 137.776 144.592C138.656 138.041 143.614 142.718 147.66 140.362C152.321 137.648 150.601 132.81 154.274 131.16C159.382 128.866 162.133 121.961 156.009 121.176Z" fill="#CAE6FE"/>
<path d="M150.564 127.062L121.751 144.88C121.931 145.144 122.109 145.408 122.285 145.668L151.072 127.866C151.297 127.727 151.365 127.434 151.225 127.212C151.084 126.99 150.788 126.923 150.564 127.062Z" fill="#ABD3F2"/>
<path d="M58.9101 97.8279C52.9191 91.0052 42.2561 77.555 38.971 72.1529C34.6793 65.0952 32.7994 59.3542 33.3831 55.0886C33.4221 54.8063 33.6849 54.6077 33.9714 54.6458C34.2576 54.6839 34.458 54.9445 34.4195 55.2273C33.3988 62.683 39.5361 73.5789 59.4327 96.8949L58.9101 97.8279Z" fill="#ABD3F2"/>
<path d="M35.6761 65.5458C35.6761 65.5458 32.1876 68.1461 27.8018 61.9057C27.8018 61.9057 34.2836 59.4219 35.6761 65.5458Z" fill="#CAE6FE"/>
<path d="M37.7695 68.8784C37.7695 68.8784 34.9486 65.5805 41.0087 60.9053C41.0087 60.9053 43.8783 67.1637 37.7695 68.8784Z" fill="#CAE6FE"/>
<path d="M33.9315 58.3939C33.9315 58.3939 30.1594 56.2146 34.2956 49.8096C34.2956 49.8096 39.1125 54.7643 33.9315 58.3939Z" fill="#CAE6FE"/>
<path d="M41.7706 75.712C41.7706 75.712 39.3779 79.3253 33.1143 74.919C33.1143 74.919 38.3644 70.4151 41.7706 75.712Z" fill="#CAE6FE"/>
<path d="M44.4222 78.7883C44.4222 78.7883 41.0668 76.0225 46.2173 70.3816C46.2173 70.3816 50.139 76.0552 44.4222 78.7883Z" fill="#CAE6FE"/>
<path d="M47.6304 83.3566C47.6304 83.3566 45.3071 87.0138 38.9604 82.7261C38.9604 82.7261 44.1228 78.1246 47.6304 83.3566Z" fill="#CAE6FE"/>
<path d="M99.7476 36.2316C102.857 27.7362 106.032 20.673 109.205 15.2055C113.35 8.06236 117.506 3.64223 121.559 2.06789C121.828 1.96357 122.131 2.09428 122.237 2.35988C122.343 2.62548 122.21 2.92544 121.942 3.02975C114.857 5.7817 107.257 18.1339 99.9421 38.772L99.7476 36.2316Z" fill="#ABD3F2"/>
<path d="M113.437 9.14256C113.437 9.14256 109.44 7.39898 112.816 0.57251C112.816 0.57251 118.169 4.95661 113.437 9.14256Z" fill="#CAE6FE"/>
<path d="M111.512 12.5727C111.512 12.5727 113.051 8.53083 120.135 11.483C120.135 11.483 116.004 17.0091 111.512 12.5727Z" fill="#CAE6FE"/>
<path d="M118.906 4.15176C118.906 4.15176 118.994 -0.165735 126.668 0.282939C126.668 0.282939 124.637 6.85428 118.906 4.15176Z" fill="#CAE6FE"/>
<path d="M107.424 19.3556C107.424 19.3556 103.065 19.051 103.907 11.4985C103.907 11.4985 110.445 13.8345 107.424 19.3556Z" fill="#CAE6FE"/>
<path d="M105.999 23.1436C105.999 23.1436 106.808 18.8998 114.301 20.5965C114.301 20.5965 111.2 26.7455 105.999 23.1436Z" fill="#CAE6FE"/>
<path d="M103.525 28.1384C103.525 28.1384 99.1616 27.9155 99.858 20.3484C99.858 20.3484 106.439 22.562 103.525 28.1384Z" fill="#CAE6FE"/>
<path d="M128.576 33.2679V155.35C128.576 159.176 125.438 162.278 121.566 162.278H60.054C58.1085 162.278 56.3498 161.496 55.0795 160.232C53.8218 158.978 53.0444 157.254 53.0444 155.35V33.2679C53.0444 29.4409 56.1824 26.3396 60.0545 26.3396H121.566C122.711 26.3396 123.792 26.6102 124.746 27.092C127.02 28.2369 128.576 30.5721 128.576 33.2679Z" fill="#2A365C"/>
<path d="M128.575 33.2679V155.35C128.575 159.177 125.437 162.278 121.565 162.278H60.0532C58.1076 162.278 56.349 161.496 55.0786 160.232L124.745 27.092C127.019 28.237 128.575 30.5721 128.575 33.2679Z" fill="#16162F"/>
<path d="M53.0439 64.4287H52.0309C51.1742 64.4287 50.4795 63.7421 50.4795 62.8954V49.8336C50.4795 48.9869 51.1742 48.3003 52.0309 48.3003H53.0439V64.4287Z" fill="#16162F"/>
<path d="M128.576 60.2088H129.405C130.106 60.2088 130.674 59.6474 130.674 58.9545V48.3304C130.674 47.6375 130.106 47.0762 129.405 47.0762H128.576V60.2088Z" fill="#16162F"/>
<path d="M53.0439 82.7456H52.0309C51.1742 82.7456 50.4795 82.0594 50.4795 81.2123V68.1505C50.4795 67.3038 51.1742 66.6172 52.0309 66.6172H53.0439V82.7456Z" fill="#16162F"/>
<path d="M125.079 32.9665V155.651C125.079 157.402 123.642 158.822 121.871 158.822H59.7488C58.428 158.822 57.2942 158.033 56.8025 156.906C56.6334 156.521 56.5405 156.097 56.5405 155.651V32.9665C56.5405 31.215 57.9766 29.7957 59.7488 29.7957H121.871C122.339 29.7957 122.785 29.8945 123.185 30.0734C124.301 30.569 125.079 31.6779 125.079 32.9665Z" fill="#FEFDFF"/>
<path d="M118.742 123.605H80.9272C80.2401 123.605 79.6831 123.055 79.6831 122.375C79.6831 121.696 80.2401 121.146 80.9272 121.146H118.742C119.429 121.146 119.986 121.696 119.986 122.375C119.986 123.054 119.429 123.605 118.742 123.605Z" fill="#CAE6FE"/>
<path d="M118.742 128.932H80.9272C80.2401 128.932 79.6831 128.382 79.6831 127.703C79.6831 127.023 80.2401 126.473 80.9272 126.473H118.742C119.429 126.473 119.986 127.023 119.986 127.703C119.986 128.382 119.429 128.932 118.742 128.932Z" fill="#CAE6FE"/>
<path d="M118.742 134.26H80.9272C80.2401 134.26 79.6831 133.709 79.6831 133.03C79.6831 132.351 80.2401 131.801 80.9272 131.801H118.742C119.429 131.801 119.986 132.351 119.986 133.03C119.986 133.709 119.429 134.26 118.742 134.26Z" fill="#CAE6FE"/>
<path d="M76.3096 121.15H63.0513V134.253H76.3096V121.15Z" fill="#CAE6FE"/>
<path d="M84.88 45.7515H64.2953C63.6082 45.7515 63.0513 46.3019 63.0513 46.981C63.0513 47.6601 63.6082 48.2106 64.2953 48.2106H84.88C85.5671 48.2106 86.124 47.6601 86.124 46.981C86.124 46.3019 85.5671 45.7515 84.88 45.7515Z" fill="#CAE6FE"/>
<path d="M84.88 51.0789H64.2953C63.6082 51.0789 63.0513 51.6293 63.0513 52.3084C63.0513 52.9875 63.6082 53.538 64.2953 53.538H84.88C85.5671 53.538 86.124 52.9875 86.124 52.3084C86.124 51.6293 85.5671 51.0789 84.88 51.0789Z" fill="#CAE6FE"/>
<path d="M84.88 56.406H64.2953C63.6082 56.406 63.0513 56.9565 63.0513 57.6356C63.0513 58.3147 63.6082 58.8651 64.2953 58.8651H84.88C85.5671 58.8651 86.124 58.3147 86.124 57.6356C86.124 56.9565 85.5671 56.406 84.88 56.406Z" fill="#CAE6FE"/>
<path d="M118.705 45.7515H98.12C97.4329 45.7515 96.876 46.3019 96.876 46.981C96.876 47.6601 97.4329 48.2106 98.12 48.2106H118.705C119.392 48.2106 119.949 47.6601 119.949 46.981C119.949 46.3019 119.392 45.7515 118.705 45.7515Z" fill="#CAE6FE"/>
<path d="M118.705 51.0789H98.12C97.4329 51.0789 96.876 51.6293 96.876 52.3084C96.876 52.9875 97.4329 53.538 98.12 53.538H118.705C119.392 53.538 119.949 52.9875 119.949 52.3084C119.949 51.6293 119.392 51.0789 118.705 51.0789Z" fill="#CAE6FE"/>
<path d="M118.705 56.406H98.12C97.4329 56.406 96.876 56.9565 96.876 57.6356C96.876 58.3147 97.4329 58.8651 98.12 58.8651H118.705C119.392 58.8651 119.949 58.3147 119.949 57.6356C119.949 56.9565 119.392 56.406 118.705 56.406Z" fill="#CAE6FE"/>
<path d="M66.7109 30.7592L70.1087 35.8685C71.0565 37.2937 72.6664 38.1521 74.3924 38.1521H107.228C108.953 38.1521 110.564 37.2937 111.511 35.8685L114.909 30.7592C114.909 30.2297 114.471 29.7957 113.934 29.7957H67.6859C67.1505 29.7957 66.7109 30.2301 66.7109 30.7592Z" fill="#2A365C"/>
<path d="M101.966 34.4534H73.8308C73.259 34.4534 72.7915 33.9909 72.7915 33.4261C72.7915 32.861 73.2595 32.3989 73.8308 32.3989H101.966C102.538 32.3989 103.005 32.8614 103.005 33.4261C103.005 33.9909 102.537 34.4534 101.966 34.4534Z" fill="#445279"/>
<path d="M108.521 33.3574C108.521 34.0382 107.962 34.5903 107.273 34.5903C106.585 34.5903 106.026 34.0386 106.026 33.3574C106.026 32.6767 106.584 32.1245 107.273 32.1245C107.963 32.1245 108.521 32.6767 108.521 33.3574Z" fill="#445279"/>
<path d="M120.566 84.0354H61.3882V110.609H120.566V84.0354Z" fill="#45A9EA"/>
<path d="M120.566 84.0354H61.3882V86.1456H120.566V84.0354Z" fill="#45A9EA"/>
<path d="M120.566 82.455H61.3882L65.9953 71.675H115.959L120.566 82.455Z" fill="#445279"/>
<path d="M122.444 82.3821H58.7593V84.0356H122.444V82.3821Z" fill="#2A365C"/>
<path d="M103.438 110.609H78.5166V89.9964L91.3121 83.1243L103.438 89.3211V110.609Z" fill="#45A9EA"/>
<path d="M79.1879 91.8755H77.0923V110.609H79.1879V91.8755Z" fill="#45A9EA"/>
<path d="M104.89 91.8755H102.794V110.609H104.89V91.8755Z" fill="#45A9EA"/>
<path d="M95.2402 96.7363H86.7144V110.644H95.2402V96.7363Z" fill="#2A365C"/>
<path d="M94.3817 97.5842H87.5718V110.644H94.3817V97.5842Z" fill="#445279"/>
<path d="M93.9458 104.51C93.9458 104.9 93.6258 105.217 93.2307 105.217C92.8357 105.217 92.5156 104.9 92.5156 104.51C92.5156 104.12 92.8357 103.803 93.2307 103.803C93.6258 103.803 93.9458 104.12 93.9458 104.51Z" fill="#2A365C"/>
<path d="M96.2405 96.7363H85.714C85.363 96.7363 85.0786 96.4553 85.0786 96.1084V95.6982H96.8763V96.1084C96.8759 96.4553 96.5915 96.7363 96.2405 96.7363Z" fill="#2A365C"/>
<path d="M90.6011 98.5427H88.5V102.771H90.6011V98.5427Z" fill="#CAE6FE"/>
<path d="M90.6011 98.71V99.9609L88.5 102.037V100.786L90.6011 98.71Z" fill="#FEFDFF"/>
<path opacity="0.2" d="M90.6011 98.5427H88.5V99.1405H90.6011V98.5427Z" fill="black"/>
<path d="M93.5665 98.5427H91.4653V102.771H93.5665V98.5427Z" fill="#CAE6FE"/>
<path d="M93.5665 98.71V99.9609L91.4653 102.037V100.786L93.5665 98.71Z" fill="#FEFDFF"/>
<path opacity="0.2" d="M93.5665 98.5427H91.4653V99.1405H93.5665V98.5427Z" fill="black"/>
<path d="M122.444 82.3937H58.7593V81.503C58.7593 80.7498 59.3769 80.1394 60.139 80.1394H121.065C121.827 80.1394 122.444 80.7498 122.444 81.503V82.3937H122.444Z" fill="#2A365C"/>
<path d="M109.728 91.8942L106.315 91.885L102.767 91.8753L90.9775 84.0204L79.1879 91.8753L75.6396 91.885L72.2266 91.8942L90.9775 79.4021L109.728 91.8942Z" fill="#445279"/>
<path d="M106.315 91.885L102.767 91.8753L90.9775 84.0204L79.1879 91.8753L75.6396 91.885L90.9775 81.666L106.315 91.885Z" fill="#2A365C"/>
<path d="M72.3198 95.4866H67.2939V104.756H72.3198V95.4866Z" fill="#CAE6FE"/>
<path d="M72.3195 95.4866H70.5481L67.3071 98.6897V101.307L72.3195 96.3533V95.4866Z" fill="#FEFDFF"/>
<path d="M72.3195 99.4065L67.3071 104.361V104.756H68.2299L72.3195 100.715V99.4065Z" fill="#FEFDFF"/>
<path d="M66.6064 94.8079V105.434H72.319V94.8079H66.6064ZM67.2935 95.4861H71.6196V99.7709H67.2935V95.4861ZM67.2935 104.756V100.471H71.6196V104.756H67.2935Z" fill="#445279"/>
<path opacity="0.2" d="M72.3186 94.8662H66.6064V95.9605H72.3186V94.8662Z" fill="black"/>
<path d="M72.9009 94.8078H66.0256C65.7353 94.8078 65.5 94.5753 65.5 94.2883V93.949H73.4265V94.2883C73.4265 94.5753 73.1908 94.8078 72.9009 94.8078Z" fill="#2A365C"/>
<path d="M72.319 105.434H66.6064V106.522H72.319V105.434Z" fill="#45A9EA"/>
<path d="M116.547 95.4866H111.521V104.756H116.547V95.4866Z" fill="#CAE6FE"/>
<path d="M116.547 95.4866H114.776L111.535 98.6897V101.307L116.547 96.3533V95.4866Z" fill="#FEFDFF"/>
<path d="M116.547 99.4065L111.535 104.361V104.756H112.457L116.547 100.715V99.4065Z" fill="#FEFDFF"/>
<path d="M110.835 94.8079V105.434H116.548V94.8079H110.835ZM111.522 95.4861H115.848V99.7709H111.522V95.4861ZM111.522 104.756V100.471H115.848V104.756H111.522Z" fill="#445279"/>
<path opacity="0.2" d="M116.547 94.8662H110.835V95.9605H116.547V94.8662Z" fill="black"/>
<path d="M117.128 94.8078H110.253C109.963 94.8078 109.728 94.5753 109.728 94.2883V93.949H117.654V94.2883C117.654 94.5753 117.418 94.8078 117.128 94.8078Z" fill="#2A365C"/>
<path d="M116.548 105.434H110.835V106.522H116.548V105.434Z" fill="#45A9EA"/>
<path d="M114.686 73.8186H67.5936C67.4279 73.8186 67.2939 73.6858 67.2939 73.5224V73.1353C67.2939 72.9715 67.4283 72.8391 67.5936 72.8391H114.686C114.851 72.8391 114.985 72.9719 114.985 73.1353V73.5224C114.985 73.6862 114.851 73.8186 114.686 73.8186Z" fill="#2A365C"/>
<path d="M115.316 76.3943H66.598C66.4323 76.3943 66.2983 76.2615 66.2983 76.0981V75.711C66.2983 75.5472 66.4327 75.4148 66.598 75.4148H115.316C115.482 75.4148 115.616 75.5476 115.616 75.711V76.0981C115.616 76.2615 115.481 76.3943 115.316 76.3943Z" fill="#2A365C"/>
<path d="M117.355 78.9699H65.1117C64.946 78.9699 64.812 78.8371 64.812 78.6738V78.2867C64.812 78.1233 64.9464 77.9905 65.1117 77.9905H117.355C117.52 77.9905 117.654 78.1233 117.654 78.2867V78.6738C117.655 78.8371 117.52 78.9699 117.355 78.9699Z" fill="#2A365C"/>
<path d="M76.0716 68.2712H69.4634V75.6385H76.0716V68.2712Z" fill="#45A9EA"/>
<path d="M76.0716 68.2712H69.4634V70.164H76.0716V68.2712Z" fill="#45A9EA"/>
<path d="M77.4511 65.7786V66.6537C77.4511 66.7811 77.4359 66.9055 77.407 67.0249C77.2375 67.7387 76.5881 68.2712 75.8145 68.2712H69.7201C68.9461 68.2712 68.2967 67.7387 68.1276 67.0249C68.0988 66.9055 68.0835 66.7811 68.0835 66.6537V65.7786H77.4511Z" fill="#445279"/>
<path d="M77.4074 67.0249C77.2378 67.7388 76.5885 68.2712 75.8149 68.2712H69.7204C68.9464 68.2712 68.2971 67.7388 68.1279 67.0249H77.4074Z" fill="#2A365C"/>
<path d="M121.663 112.257H60.2178C59.9393 112.257 59.7134 112.034 59.7134 111.759V111.108C59.7134 110.832 59.9393 110.609 60.2178 110.609H121.663C121.941 110.609 122.167 110.832 122.167 111.108V111.759C122.167 112.034 121.942 112.257 121.663 112.257Z" fill="#445279"/>
<path d="M123.225 113.879H58.6572C58.3788 113.879 58.1528 113.655 58.1528 113.38V112.729C58.1528 112.454 58.3788 112.231 58.6572 112.231H123.225C123.503 112.231 123.729 112.454 123.729 112.729V113.38C123.729 113.656 123.503 113.879 123.225 113.879Z" fill="#2A365C"/>
<path d="M79.188 91.8946V94.3981L91.1396 86.7949L102.794 94.3981L102.767 91.8946L90.9776 84.04L79.188 91.8946Z" fill="#45A9EA"/>
<path opacity="0.3" d="M125.079 32.9666V155.651C125.079 157.402 123.642 158.822 121.87 158.822H59.7486C58.4278 158.822 57.2939 158.033 56.8022 156.906L123.184 30.0735C124.3 30.5691 125.079 31.678 125.079 32.9666Z" fill="#FEFDFF"/>
<path d="M17.2942 139.86L22.4451 141.564C23.0966 141.779 23.8011 141.432 24.0181 140.788L28.3844 127.892L30.1906 122.559L22.6821 120.075L21.6122 123.235L16.5096 138.305C16.2913 138.948 16.6427 139.644 17.2942 139.86Z" fill="#45A9EA"/>
<path d="M21.6128 123.235C23.107 124.876 25.367 126.809 28.385 127.892L30.1912 122.559L22.6827 120.075L21.6128 123.235Z" fill="#45A9EA"/>
<path d="M22.2004 141.483L21.6981 142.967L15.2298 162.072C14.7987 163.344 13.4063 164.03 12.1185 163.605C10.8321 163.178 10.1369 161.802 10.5684 160.53L16.4264 143.229L17.539 139.941L22.2004 141.483Z" fill="#2A365C"/>
<path d="M22.2003 141.483L21.698 142.967L16.4263 143.229L17.5389 139.941L22.2003 141.483Z" fill="#16162F"/>
<path d="M11.7216 95.4232C7.75969 106.93 13.9851 119.433 25.629 123.35C37.2724 127.266 49.9229 121.112 53.8853 109.605C57.8477 98.0972 51.6218 85.5934 39.9784 81.6768C28.3346 77.761 15.684 83.9156 11.7216 95.4232ZM14.9545 96.5107C18.304 86.7831 29.0357 81.562 38.878 84.8724C48.7204 88.1828 54.0014 98.7901 50.652 108.517C47.303 118.244 36.5713 123.465 26.7289 120.154C16.887 116.844 11.6055 106.237 14.9545 96.5107Z" fill="#445279"/>
<path opacity="0.5" d="M13.9963 103.822C14.7258 114.071 23.756 121.823 34.1269 121.102C35.0162 121.041 35.8881 120.919 36.7371 120.74C38.937 120.277 40.9865 119.439 42.8189 118.299C44.7297 117.11 46.4044 115.594 47.7664 113.836C49.909 111.076 51.2803 107.72 51.5914 104.101C51.6732 103.153 51.6813 102.185 51.6117 101.207C50.8823 90.9566 41.852 83.2039 31.4811 83.9249C30.4905 83.9936 29.5228 84.1373 28.5831 84.3501C25.0009 85.1612 21.8299 86.9743 19.3655 89.4573C17.7955 91.0358 16.5111 92.8871 15.5888 94.9235C14.7033 96.8761 14.1501 98.9993 13.995 101.217C13.934 102.073 13.9335 102.943 13.9963 103.822Z" fill="#FEFDFF"/>
<path opacity="0.5" d="M19.3647 89.4573L47.766 113.836C49.9087 111.076 51.28 107.72 51.5911 104.101L28.5823 84.3501C25.0002 85.1611 21.8292 86.9743 19.3647 89.4573Z" fill="#FEFDFF"/>
<path opacity="0.5" d="M13.9941 101.217L36.7371 120.74C38.937 120.277 40.9865 119.439 42.8189 118.298L15.5883 94.9233C14.7024 96.876 14.1493 98.9991 13.9941 101.217Z" fill="#FEFDFF"/>
<path d="M139.886 152.919L139.649 157.147L143.119 157.222L143.544 152.781L139.886 152.919Z" fill="#FBA691"/>
<path d="M141.025 156.553C141.025 156.553 142.812 156.153 143.301 156.181C143.789 156.209 146.926 159.952 148.021 160.207C150.007 160.668 149.891 163.755 148.668 163.863C145.13 164.174 139.163 162.478 139.163 162.478C139.163 162.478 138.76 158.496 139.049 157.262C139.338 156.028 140.028 156.881 141.025 156.553Z" fill="#45A9EA"/>
<path d="M143.811 160.043C143.747 160.054 143.68 160.041 143.624 160.001C143.515 159.922 143.491 159.772 143.57 159.664C143.597 159.628 144.228 158.779 144.98 158.503C145.981 158.135 146.659 158.746 146.688 158.773C146.787 158.863 146.792 159.016 146.7 159.114C146.608 159.211 146.453 159.216 146.355 159.125C146.336 159.109 145.863 158.695 145.15 158.956C144.538 159.18 143.97 159.94 143.965 159.948C143.926 160 143.87 160.033 143.811 160.043Z" fill="#FEFDFF"/>
<path d="M143.164 159.288C143.101 159.3 143.033 159.286 142.977 159.246C142.868 159.168 142.844 159.017 142.923 158.909C142.95 158.873 143.582 158.024 144.334 157.748C145.335 157.38 146.013 157.991 146.041 158.018C146.14 158.108 146.145 158.261 146.053 158.358C145.961 158.456 145.807 158.461 145.708 158.37C145.689 158.354 145.215 157.94 144.503 158.2C143.888 158.426 143.324 159.185 143.318 159.193C143.28 159.245 143.224 159.277 143.164 159.288Z" fill="#FEFDFF"/>
<path d="M144.729 160.7C144.666 160.711 144.598 160.697 144.541 160.657C144.432 160.579 144.408 160.428 144.488 160.32C144.515 160.284 145.146 159.435 145.898 159.16C146.899 158.791 147.577 159.403 147.606 159.429C147.704 159.519 147.709 159.672 147.617 159.769C147.526 159.867 147.371 159.872 147.272 159.781C147.254 159.764 146.78 159.351 146.068 159.611C145.452 159.837 144.888 160.596 144.883 160.604C144.844 160.656 144.788 160.689 144.729 160.7Z" fill="#FEFDFF"/>
<path d="M152.647 101.404C152.647 101.404 152.575 102.397 152.444 104.043C152.41 104.479 152.372 104.961 152.329 105.485C151.88 111.01 151.011 121.002 150.062 128.09C148.731 138.027 144.538 154.357 144.538 154.357L140.211 154.21L139.783 154.194L138.757 154.16C138.757 154.16 139.477 143.829 140.397 134.86C141.003 128.945 141.364 114.948 141.537 106.109C141.626 101.551 141.669 98.3628 141.669 98.3628L152.647 101.404Z" fill="#2A365C"/>
<path d="M152.647 101.404C152.647 101.404 152.575 102.397 152.444 104.043C152.41 104.479 152.372 104.961 152.329 105.485C150.333 105.853 144.844 106.109 141.538 106.109C141.627 101.551 141.669 98.3628 141.669 98.3628L152.647 101.404Z" fill="#16162F"/>
<path d="M144.001 103.971C143.997 104.311 143.598 136.514 140.211 154.21L139.783 154.193C143.174 136.552 143.573 104.302 143.577 103.967L144.001 103.971Z" fill="#16162F"/>
<path d="M167.027 153.731L166.885 157.545L163.358 157.36L163.278 153.311L167.027 153.731Z" fill="#FBA691"/>
<path d="M165.986 157.369C165.986 157.369 166.754 156.38 167.353 156.431C167.951 156.483 172.514 160.178 174.091 160.501C175.669 160.824 175.344 161.97 175.045 162.555C174.747 163.139 162.43 162.149 162.43 162.149C162.43 162.149 162.145 158.517 162.565 157.413C162.984 156.31 164.745 157.614 165.986 157.369Z" fill="#45A9EA"/>
<path d="M168.5 159.938C168.443 159.954 168.381 159.948 168.327 159.916C168.221 159.855 168.187 159.72 168.248 159.616C168.269 159.581 168.765 158.759 169.42 158.445C170.291 158.026 170.959 158.519 170.987 158.54C171.084 158.613 171.102 158.751 171.028 158.847C170.954 158.943 170.815 158.961 170.717 158.888C170.699 158.874 170.234 158.542 169.613 158.839C169.08 159.095 168.635 159.832 168.63 159.839C168.6 159.889 168.553 159.924 168.5 159.938Z" fill="#FEFDFF"/>
<path d="M167.849 159.312C167.793 159.328 167.73 159.322 167.676 159.29C167.57 159.228 167.535 159.094 167.597 158.99C167.618 158.955 168.114 158.133 168.768 157.819C169.641 157.399 170.307 157.892 170.335 157.914C170.433 157.987 170.451 158.125 170.377 158.221C170.302 158.317 170.163 158.335 170.066 158.261C170.048 158.248 169.583 157.915 168.962 158.213C168.426 158.47 167.983 159.205 167.979 159.213C167.949 159.263 167.902 159.297 167.849 159.312Z" fill="#FEFDFF"/>
<path d="M169.388 160.452C169.331 160.468 169.269 160.462 169.215 160.43C169.109 160.369 169.074 160.235 169.136 160.13C169.157 160.095 169.653 159.273 170.308 158.958C171.18 158.539 171.847 159.032 171.875 159.054C171.972 159.127 171.99 159.265 171.916 159.361C171.842 159.457 171.702 159.475 171.605 159.401C171.587 159.388 171.122 159.055 170.502 159.353C169.965 159.61 169.523 160.345 169.519 160.353C169.488 160.403 169.441 160.437 169.388 160.452Z" fill="#FEFDFF"/>
<path d="M167.669 154.726L164.084 154.462L163.656 154.433L162.785 154.368C162.785 154.368 160.583 133.65 159.898 128.131C159.302 123.336 156.522 112.564 154.716 105.861C154.204 103.958 153.771 102.383 153.485 101.366C153.268 100.566 153.139 100.111 153.139 100.111L165.125 98.9636C165.125 98.9636 165.159 99.2238 165.214 99.6921C165.331 100.651 165.555 102.487 165.826 104.796C166.574 111.079 167.713 120.856 168.154 125.834C169.285 138.651 167.669 154.726 167.669 154.726Z" fill="#2A365C"/>
<path d="M165.826 104.796L154.716 105.86C154.205 103.958 153.771 102.383 153.486 101.365L165.214 99.6921C165.331 100.651 165.556 102.488 165.826 104.796Z" fill="#16162F"/>
<path d="M164.084 154.462L163.657 154.433C163.449 148.026 162.812 132.025 161.514 125.241C159.881 116.691 156.128 104.24 156.089 104.114L156.498 103.994C156.536 104.12 160.296 116.593 161.93 125.165C163.238 131.99 163.879 148.068 164.084 154.462Z" fill="#16162F"/>
<path d="M164.446 69.3701C164.681 70.9184 164.924 72.404 165.136 73.6482C165.476 75.6549 165.734 77.0336 165.734 77.0336L167.573 82.243C168.204 84.0247 170.296 84.8252 171.977 83.9275C172.005 83.9137 172.038 83.9015 172.063 83.8818C172.677 83.4151 173.165 82.509 173.618 80.3766C173.618 80.3766 173.618 80.3766 173.618 80.3758C173.632 80.1915 175.262 72.2418 175.277 69.3806L171.551 69.0307C171.391 68.6864 170.591 72.7756 170.414 72.3981C170.301 72.1547 170.184 71.9038 170.066 71.6499C169.868 71.228 169.662 70.7919 169.454 70.3466C169.157 69.7153 168.851 69.0643 168.541 68.4082C166.264 63.5637 163.838 58.4373 163.838 58.4373C163.051 58.8717 163.702 64.4388 164.446 69.3701Z" fill="#FBA691"/>
<path d="M164.446 69.3696C164.681 70.9184 164.924 72.404 165.136 73.6482C167.3 72.8443 168.685 71.3914 169.454 70.3466C169.157 69.7148 168.851 69.0638 168.542 68.4082L164.446 69.3696Z" fill="#FD857D"/>
<path d="M169.395 78.6905C169.407 78.6913 169.418 78.6905 169.431 78.6901C169.546 78.6834 169.642 78.5946 169.652 78.4781C169.903 75.6977 170.206 73.6365 170.415 72.3986C170.302 72.1552 170.184 71.9043 170.066 71.6504C169.865 72.7425 169.485 75.0663 169.18 78.4362C169.169 78.5648 169.264 78.6779 169.395 78.6905Z" fill="#FD857D"/>
<path d="M170.93 68.1116C170.93 68.1116 170.476 68.7149 169.66 69.3961C168.672 70.2247 166.826 71.2804 164.947 71.409C163.143 65.8146 162.576 58.7586 163.122 56.8918C164.052 57.8973 168.789 63.4925 170.93 68.1116Z" fill="#45A9EA"/>
<path d="M169.659 68.208L169.718 68.2428L170.22 68.5272L170.338 68.3186L174.697 68.2005C175.065 68.1917 175.367 67.9097 175.4 67.5469L176.201 58.5445C176.205 58.4993 176.206 58.4545 176.201 58.4126L176.368 58.1591L175.842 57.8608L175.822 57.85L175.807 57.8416C175.703 57.7896 175.584 57.7607 175.459 57.7645L170.837 57.8898C170.469 57.8986 170.166 58.1805 170.135 58.5429L169.334 67.5452C169.311 67.8192 169.445 68.0677 169.659 68.208Z" fill="#2A365C"/>
<path d="M170.606 68.6241L175.227 68.4996C175.595 68.4896 175.897 68.2085 175.929 67.8457L176.73 58.8425C176.768 58.4156 176.421 58.0515 175.988 58.0633L171.368 58.1877C170.999 58.1977 170.697 58.4788 170.665 58.8416L169.864 67.8449C169.826 68.2713 170.173 68.6358 170.606 68.6241Z" fill="#445279"/>
<path d="M176.379 62.7845C176.807 62.8331 176.452 63.4544 176.735 64.3253C177.087 65.4104 175.264 69.8686 175.264 69.8686C173.494 70.6633 171.37 69.2687 171.37 69.2687C171.37 69.2687 170.915 65.872 171.339 64.3371C171.339 64.3371 171.59 62.9655 171.664 62.1607C171.737 61.361 172.098 60.4439 172.354 60.6065C172.61 60.769 172.674 61.4226 172.679 61.9186C172.684 62.4146 172.786 63.363 172.786 63.363C172.786 63.363 172.923 62.1913 172.944 61.5453C172.966 60.8997 172.915 59.8734 173.313 59.6718C173.814 59.4184 173.956 60.7937 174.021 61.2923C174.085 61.7908 173.887 63.3404 173.887 63.3404C173.887 63.3404 174.228 61.6019 174.142 61.087C174.056 60.5717 173.948 59.5663 173.974 59.1402C174 58.7142 174.554 58.7846 174.72 59.3091C174.887 59.8336 175.077 60.8876 175.123 61.2407C175.182 61.6911 175.07 63.1909 175.07 63.1909C175.07 63.1909 175.288 61.4829 175.274 61.0317C175.262 60.6651 175.148 59.9408 175.28 59.5185C175.412 59.0962 175.924 59.0158 176.088 60.1251C176.251 61.2345 176.279 61.3656 176.247 61.6978C176.191 62.283 176.09 62.9315 176.157 63.1724C176.191 63.2927 176.331 63.2943 176.331 63.2943L176.379 62.7845Z" fill="#FBA691"/>
<path d="M167.066 99.8789C158.137 102.69 149.06 103.225 139.834 101.505C139.656 99.0226 139.191 90.8736 138.838 82.286C138.826 82.0011 138.814 81.7162 138.803 81.4309C138.795 81.2022 138.786 80.9739 138.776 80.7439C138.77 80.5793 138.762 80.4134 138.757 80.2475C138.754 80.172 138.751 80.0966 138.748 80.0208C138.739 79.7967 138.733 79.5675 138.723 79.3447C138.715 79.1574 138.706 78.9706 138.7 78.7833C138.699 78.7577 138.698 78.7313 138.697 78.7058C138.697 78.6823 138.695 78.6601 138.695 78.6367C138.686 78.4402 138.681 78.242 138.673 78.0477C138.672 78.0095 138.67 77.971 138.668 77.9337C138.662 77.6974 138.651 77.4616 138.645 77.2266C138.638 77.064 138.632 76.9044 138.626 76.7448C138.624 76.6798 138.622 76.6149 138.62 76.55C138.611 76.3694 138.605 76.1876 138.601 76.0087C138.598 75.9543 138.597 75.9002 138.596 75.8458C138.591 75.6807 138.587 75.5148 138.582 75.3489C138.58 75.2785 138.578 75.2086 138.576 75.1382C138.57 74.9019 138.558 74.6673 138.556 74.4348C138.546 74.2061 138.54 73.9815 138.535 73.7582C138.529 73.6083 138.525 73.4595 138.52 73.3104C138.509 72.9857 138.502 72.6644 138.495 72.3464C138.304 64.9896 138.327 58.9537 138.86 58.1275C140.1 56.213 146.096 53.1314 147.906 51.7062L147.924 52.0003C147.924 52.0003 149.202 53.477 150.527 53.2818C151.731 53.1087 152.572 51.6685 152.713 51.4075C153.694 52.0074 155.93 52.9357 158.104 53.9407C160.278 54.942 162.389 56.0128 163.121 56.8908C163.748 57.6474 164.448 63.5326 165.086 70.7583L165.088 70.7817C165.099 70.9166 165.112 71.0511 165.123 71.1856L165.124 71.2057C165.131 71.31 165.141 71.4135 165.152 71.5216C165.158 71.5873 165.163 71.6523 165.169 71.7189C165.181 71.8663 165.196 72.0159 165.207 72.1655C165.225 72.3883 165.246 72.612 165.264 72.8399C165.282 73.0712 165.3 73.3058 165.322 73.5408C165.328 73.6108 165.333 73.6807 165.339 73.7507C165.353 73.9162 165.366 74.0816 165.381 74.2459C165.386 74.2999 165.389 74.354 165.394 74.4084C165.408 74.5865 165.422 74.7679 165.436 74.9484L165.452 75.1424C165.464 75.3016 165.477 75.4608 165.49 75.6229C165.507 75.8575 165.526 76.0929 165.545 76.3284C165.547 76.3657 165.55 76.4038 165.554 76.4419C165.568 76.6363 165.583 76.8336 165.598 77.0297C165.6 77.0531 165.602 77.0753 165.603 77.0988C165.605 77.1243 165.608 77.1507 165.609 77.1763C165.625 77.3627 165.639 77.5496 165.653 77.7364C165.671 77.9593 165.689 78.183 165.703 78.4113C165.709 78.4867 165.715 78.5621 165.72 78.6371C165.734 78.8026 165.746 78.968 165.758 79.1327C165.776 79.361 165.792 79.5889 165.809 79.8181C165.829 80.1025 165.85 80.387 165.87 80.6714C166.486 89.218 166.947 97.3708 167.066 99.8789Z" fill="#45A9EA"/>
<path d="M165.34 73.7507L138.582 75.3485C138.58 75.2782 138.578 75.2082 138.576 75.1378C138.57 74.9015 138.558 74.6669 138.556 74.4344C138.546 74.2057 138.54 73.9811 138.535 73.7579C138.529 73.6079 138.525 73.4592 138.52 73.31L165.169 71.7185C165.181 71.866 165.196 72.0155 165.207 72.1651C165.225 72.388 165.246 72.6117 165.264 72.8396C165.282 73.0708 165.3 73.3054 165.322 73.5404C165.328 73.6108 165.333 73.6808 165.34 73.7507Z" fill="#45A9EA"/>
<path d="M165.609 77.1763L138.7 78.7833C138.699 78.7578 138.698 78.7314 138.697 78.7058C138.697 78.6824 138.695 78.6602 138.695 78.6367C138.686 78.4402 138.681 78.2421 138.673 78.0477C138.672 78.0096 138.67 77.971 138.668 77.9337C138.662 77.6975 138.651 77.4616 138.645 77.2266C138.638 77.064 138.632 76.9044 138.626 76.7448L165.452 75.1428C165.464 75.302 165.477 75.4612 165.49 75.6233C165.507 75.8579 165.526 76.0934 165.545 76.3288C165.547 76.3661 165.55 76.4042 165.554 76.4423C165.568 76.6367 165.583 76.834 165.598 77.0301C165.6 77.0536 165.602 77.0758 165.603 77.0992C165.605 77.1244 165.608 77.1508 165.609 77.1763Z" fill="#45A9EA"/>
<path d="M165.87 80.6718L138.838 82.2859C138.826 82.001 138.814 81.7162 138.803 81.4309C138.795 81.2021 138.786 80.9738 138.776 80.7438C138.77 80.5792 138.762 80.4133 138.757 80.2474L165.72 78.6375C165.733 78.8029 165.746 78.9684 165.758 79.133C165.775 79.3614 165.792 79.5893 165.809 79.8184C165.829 80.1029 165.85 80.3873 165.87 80.6718Z" fill="#45A9EA"/>
<path d="M162.121 67.1717C162.965 68.1675 164.248 70.4616 164.827 71.5227C164.905 71.6685 164.971 71.7908 165.021 71.8834C165.087 72.0053 165.123 72.0757 165.126 72.0811C165.145 72.1176 165.173 72.1457 165.206 72.1649C165.188 71.9492 165.17 71.7347 165.151 71.5206C165.142 71.4146 165.132 71.3086 165.123 71.2043L165.122 71.1871C165.004 70.971 164.864 70.7171 164.708 70.4385C164.053 69.2743 163.125 67.7079 162.444 66.9044C162.37 66.816 162.237 66.8047 162.147 66.8784C162.057 66.9522 162.047 67.0837 162.121 67.1717Z" fill="#45A9EA"/>
<path d="M144.225 60.1229C144.227 60.1229 144.23 60.1225 144.232 60.1225C147.836 59.7932 150.532 58.1422 152.158 56.815C153.92 55.3773 154.819 54.0354 154.856 53.9789C154.92 53.8825 154.893 53.7535 154.796 53.6907C154.698 53.6274 154.567 53.6546 154.503 53.7506C154.468 53.8038 150.881 59.0965 144.194 59.7078C144.077 59.7182 143.992 59.8196 144.003 59.9344C144.013 60.0467 144.112 60.1296 144.225 60.1229Z" fill="#45A9EA"/>
<path d="M159.804 95.3826C159.913 95.3759 160.001 95.2863 160.001 95.1757C160.002 95.0605 159.908 94.9666 159.792 94.9662C153.843 94.936 150.128 92.1799 148.059 89.8733C145.809 87.3651 144.958 84.8281 144.95 84.8025C144.914 84.6932 144.795 84.6329 144.684 84.6689C144.573 84.7045 144.513 84.8218 144.548 84.9311C144.583 85.0375 145.429 87.5641 147.732 90.1368C149.859 92.5129 153.678 95.352 159.79 95.383C159.795 95.383 159.799 95.383 159.804 95.3826Z" fill="#45A9EA"/>
<path d="M154.78 91.8958C154.873 91.8904 154.954 91.8242 154.974 91.7299C154.997 91.6172 154.924 91.507 154.81 91.4836C149.577 90.4153 148.324 86.2252 148.312 86.1833C148.28 86.0727 148.163 86.0077 148.052 86.0392C147.94 86.0702 147.875 86.185 147.906 86.296C147.919 86.3421 148.236 87.4359 149.237 88.678C150.158 89.8213 151.857 91.3068 154.724 91.892C154.744 91.8958 154.762 91.8971 154.78 91.8958Z" fill="#45A9EA"/>
<path d="M141.094 67.7442C140.378 68.833 139.383 71.2632 138.938 72.3855C138.878 72.5392 138.827 72.6687 138.789 72.7671C138.739 72.8953 138.711 72.9703 138.709 72.9753C138.679 73.0554 138.605 73.1056 138.524 73.1107L138.52 73.1111C138.515 73.0051 138.512 72.8987 138.509 72.7935C138.446 72.7973 138.384 72.8011 138.324 72.8023C138.349 72.7395 138.408 72.5853 138.493 72.3683C138.6 72.0956 138.748 71.7215 138.924 71.2954C139.431 70.0613 140.163 68.3956 140.739 67.5175C140.803 67.4207 140.934 67.3931 141.032 67.4564C141.13 67.5188 141.157 67.6486 141.094 67.7442Z" fill="#45A9EA"/>
<path d="M143.106 38.8702C143.106 38.8702 142.507 36.2565 143.101 35.3194C143.694 34.3822 144.768 34.5883 145.836 33.4878C146.903 32.3868 150.404 33.1698 151.895 32.8104C152.714 32.6126 153.603 32.67 154.404 32.4589C155.55 32.1573 156.24 33.2595 156.03 34.3977C155.896 35.122 155.598 36.2154 154.57 36.5586C154.57 36.5586 144.446 35.352 143.106 38.8702Z" fill="#2A365C"/>
<path d="M143.006 40.9921C143.24 44.8153 145.782 47.3075 149.65 47.0766C153.519 46.8458 156.041 43.8521 155.807 40.029C155.574 36.2062 153.106 33.4463 149.238 33.6776C144.599 33.9545 142.772 37.1689 143.006 40.9921Z" fill="#2A365C"/>
<path d="M143.976 42.5862C143.976 42.5862 142.815 41.2343 142.087 42.453C141.36 43.6716 142.701 47.0633 144.606 46.1019L143.976 42.5862Z" fill="#FD857D"/>
<path d="M144.114 45.0587C144.041 45.0629 143.972 45.0198 143.947 44.949C143.579 43.8992 142.433 43.533 142.421 43.5297C142.334 43.5028 142.285 43.4107 142.313 43.3248C142.34 43.2385 142.433 43.1903 142.52 43.2171C142.573 43.2335 143.836 43.6331 144.26 44.8417C144.29 44.9272 144.244 45.0202 144.158 45.05C144.143 45.055 144.128 45.0579 144.114 45.0587Z" fill="#F05B56"/>
<path d="M142.95 44.5884C142.92 44.59 142.888 44.5837 142.859 44.5678C142.779 44.5234 142.751 44.4237 142.796 44.345C142.803 44.332 142.983 44.0215 143.386 43.8133C143.467 43.7714 143.567 43.8024 143.61 43.8829C143.652 43.9629 143.621 44.0618 143.539 44.1036C143.228 44.2645 143.086 44.5029 143.084 44.5054C143.056 44.5557 143.004 44.585 142.95 44.5884Z" fill="#F05B56"/>
<path d="M155.052 41.925C155.052 41.925 156.04 40.4445 156.91 41.5681C157.781 42.6916 156.863 46.2178 154.854 45.4901L155.052 41.925Z" fill="#FD857D"/>
<path d="M155.216 44.3953C155.289 44.3911 155.352 44.3396 155.368 44.2663C155.606 43.1804 156.699 42.6806 156.71 42.6756C156.793 42.6383 156.83 42.5416 156.793 42.4595C156.756 42.3769 156.657 42.3401 156.574 42.3773C156.523 42.4 155.318 42.9467 155.044 44.1972C155.025 44.2856 155.082 44.3727 155.171 44.392C155.186 44.3953 155.202 44.3962 155.216 44.3953Z" fill="#F05B56"/>
<path d="M156.313 43.7901C156.344 43.7884 156.374 43.778 156.401 43.7587C156.475 43.7051 156.491 43.6028 156.437 43.5299C156.428 43.5178 156.211 43.2313 155.786 43.0725C155.701 43.0402 155.605 43.0834 155.573 43.168C155.54 43.2526 155.584 43.3469 155.669 43.3787C155.998 43.5015 156.168 43.721 156.169 43.7235C156.204 43.77 156.259 43.7935 156.313 43.7901Z" fill="#F05B56"/>
<path d="M152.555 48.5718L152.765 52.0116C152.765 52.0116 151.834 53.8252 150.438 54.0283C149.043 54.2332 147.697 52.6781 147.697 52.6781L147.479 49.1176L152.555 48.5718Z" fill="#FBA691"/>
<path d="M152.555 48.5718L152.648 50.0979C151.769 51.1872 150.112 51.5449 147.615 51.3317L147.48 49.1176L152.555 48.5718Z" fill="#FD857D"/>
<path d="M143.402 42.5555C143.428 42.7541 143.457 42.9543 143.49 43.1575C143.573 43.6665 143.676 44.1889 143.802 44.7071C143.807 44.7256 143.81 44.7432 143.815 44.7591C144.437 47.2676 145.641 49.6983 147.954 50.3627C153.194 51.8662 154.759 47.4105 155.337 44.8324C155.401 44.5463 155.455 44.2287 155.499 43.8911C155.5 43.8781 155.502 43.8638 155.504 43.8483C155.553 43.4688 155.59 43.0658 155.617 42.651C155.637 42.344 155.651 42.0327 155.662 41.7189C155.69 40.9573 155.692 40.1948 155.683 39.5187C155.664 37.9741 154.644 36.6126 153.15 36.1467C150.998 35.4731 147.765 35.0307 144.842 36.9075C143.762 37.6 143.132 38.8023 143.185 40.0733C143.214 40.7746 143.278 41.6347 143.402 42.5555Z" fill="#FBA691"/>
<path d="M147.495 42.649C147.517 43.016 147.344 43.3252 147.108 43.3394C146.871 43.3537 146.662 43.0671 146.639 42.7002C146.617 42.3332 146.79 42.024 147.026 42.0098C147.262 41.9959 147.472 42.2821 147.495 42.649Z" fill="#2A365C"/>
<path d="M152.738 42.3361C152.761 42.7031 152.587 43.0122 152.351 43.0265C152.115 43.0407 151.905 42.7542 151.883 42.3872C151.86 42.0202 152.034 41.711 152.27 41.6968C152.506 41.6826 152.716 41.9687 152.738 42.3361Z" fill="#2A365C"/>
<path d="M153.34 40.0302C153.34 40.0302 151.959 39.5836 150.947 40.0893L151.086 40.654C151.086 40.654 152.603 40.4353 153.39 40.6972C153.445 40.4734 153.441 40.2506 153.34 40.0302Z" fill="#2A365C"/>
<path d="M145.338 40.5077C145.338 40.5077 146.655 39.9002 147.721 40.2815L147.652 40.8588C147.652 40.8588 146.119 40.8223 145.37 41.1759C145.288 40.9606 145.264 40.7389 145.338 40.5077Z" fill="#2A365C"/>
<path d="M149.87 45.3302C149.595 45.38 149.302 45.3243 149.257 45.3147C149.168 45.2962 149.11 45.2095 149.129 45.1211C149.147 45.0327 149.235 44.9757 149.325 44.9942C149.483 45.0264 149.853 45.0549 149.989 44.9364C150.016 44.9133 150.05 44.8714 150.042 44.7717C149.996 44.1986 149.489 42.3428 149.484 42.3239C149.46 42.2368 149.512 42.1467 149.6 42.1232C149.689 42.0994 149.78 42.1513 149.803 42.2385C149.825 42.316 150.323 44.1429 150.371 44.7457C150.39 44.9728 150.293 45.1081 150.208 45.1819C150.115 45.2627 149.994 45.3071 149.87 45.3302Z" fill="#FD857D"/>
<path d="M147.669 46.4452C147.846 47.1092 148.37 48.3183 149.883 48.2282C151.4 48.1377 151.756 46.9827 151.855 46.1956L147.669 46.4452Z" fill="#FEFDFF"/>
<path d="M155.655 41.9178L154.905 41.9626C154.943 41.214 154.614 40.3321 154.352 39.7469C153.757 38.4197 154.81 37.7561 153.888 37.129C152.965 36.5002 150.789 36.9233 149.261 36.9656C147.723 37.0084 145.257 37.1768 144.667 37.3498C144.076 37.5211 144.465 38.4863 144.731 39.2362C144.999 39.9844 144.094 40.8851 143.982 41.6836C143.949 41.9128 143.979 42.2488 144.039 42.6111L143.414 42.6484C143.282 41.6924 143.216 40.7988 143.185 40.0728C143.132 38.8018 143.762 37.5995 144.842 36.907C147.765 35.0302 150.998 35.4717 153.15 36.1454C154.644 36.612 155.664 37.9731 155.684 39.5182C155.693 40.253 155.689 41.0892 155.655 41.9178Z" fill="#2A365C"/>
<path d="M150.361 42.7378C150.295 41.6641 151.126 40.7382 152.212 40.6733C153.299 40.6083 154.235 41.429 154.301 42.5027C154.367 43.5765 153.536 44.5023 152.45 44.5672C151.364 44.6322 150.427 43.8115 150.361 42.7378ZM150.668 42.7193C150.724 43.6255 151.515 44.3184 152.432 44.2635C153.349 44.2086 154.05 43.4269 153.994 42.5208C153.939 41.6146 153.148 40.9217 152.231 40.9766C151.314 41.0315 150.613 41.8132 150.668 42.7193Z" fill="#FEFDFF"/>
<path d="M144.977 43.0595C144.912 41.9858 145.742 41.06 146.828 40.9951C147.914 40.9301 148.851 41.7508 148.917 42.8245C148.982 43.8982 148.152 44.8241 147.066 44.889C145.98 44.9535 145.043 44.1328 144.977 43.0595ZM145.285 43.0411C145.34 43.9473 146.131 44.6402 147.048 44.5853C147.965 44.5304 148.666 43.7487 148.61 42.8425C148.555 41.9364 147.764 41.2435 146.847 41.2984C145.93 41.3532 145.229 42.135 145.285 43.0411Z" fill="#FEFDFF"/>
<path d="M153.93 41.8954C153.969 41.8928 154.007 41.8761 154.036 41.8451C154.044 41.8359 154.887 40.9247 156.077 41.1249C156.161 41.1392 156.24 41.0835 156.255 41.0005C156.269 40.9176 156.213 40.8392 156.129 40.825C154.767 40.5958 153.845 41.5996 153.806 41.6423C153.75 41.7052 153.756 41.8011 153.819 41.8568C153.851 41.8853 153.891 41.8979 153.93 41.8954Z" fill="#FEFDFF"/>
<path d="M145.236 42.4148C145.286 42.4118 145.334 42.3846 145.36 42.3381C145.402 42.2652 145.377 42.1726 145.303 42.1307C145.242 42.0964 143.794 41.2908 142.62 41.5547C142.537 41.5732 142.485 41.6548 142.504 41.7365C142.523 41.8182 142.604 41.8698 142.688 41.8509C143.745 41.6134 145.137 42.3867 145.151 42.3947C145.177 42.4102 145.207 42.4165 145.236 42.4148Z" fill="#FEFDFF"/>
<path d="M148.782 42.3935C148.785 42.3885 149.12 41.879 149.6 41.8506C150.075 41.8221 150.434 42.2892 150.438 42.2942L150.685 42.1128C150.666 42.0881 150.225 41.5087 149.582 41.5473C148.943 41.5854 148.539 42.2046 148.522 42.2309L148.782 42.3935Z" fill="#FEFDFF"/>
<path d="M140.398 97.8844L138.656 100.235C138.656 100.235 137.647 99.6104 136.278 98.5254C136.274 98.5212 136.274 98.5212 136.269 98.517C134.184 96.8706 131.263 94.1602 129.771 90.9721C127.906 86.9881 128.453 83.7623 128.453 83.7623C128.699 81.3995 130.301 76.5986 131.577 73.0335C132.043 71.739 132.467 70.6121 132.764 69.8203L136.659 70.7043L138.325 71.7181L137.685 73.3896L133.387 84.6588C133.764 87.9642 135.46 91.2151 137.092 93.6616C138.779 96.2003 140.398 97.8844 140.398 97.8844Z" fill="#FBA691"/>
<path d="M140.398 97.8844L138.656 100.235C138.656 100.235 137.647 99.6104 136.278 98.5254C136.274 98.5212 136.274 98.5212 136.269 98.517C135.968 96.7408 136.151 94.2314 137.092 93.6616C138.779 96.2003 140.398 97.8844 140.398 97.8844Z" fill="#FD857D"/>
<path d="M139.468 95.1728C139.818 95.1954 141.687 95.2871 141.485 94.655C141.262 93.9579 139.428 93.1414 139.428 93.1414C139.428 93.1414 139.417 93.1058 139.435 93.0589L139.415 92.9101L139.334 91.4116C138.98 91.4141 138.654 91.4824 138.478 91.5365C137.674 91.7824 137.784 93.6001 137.784 93.6001C137.784 93.6001 136.77 93.9583 136.807 94.6923C136.844 95.4262 137.661 95.5364 137.661 95.5364C137.661 95.5364 136.545 96.0869 136.806 96.7107C137.067 97.3345 137.912 97.518 137.912 97.518C137.912 97.518 136.955 98.1417 137.29 98.582C137.624 99.0223 138.404 99.2427 138.404 99.2427C138.404 99.2427 137.736 100.136 138.415 100.623C139.093 101.109 140.091 101.004 140.732 100.784C141.374 100.564 141.263 99.7563 140 99.1689C140 99.1689 141.114 99.2791 141.671 98.3617C142.135 97.5967 140.951 97.2662 139.94 97.1346C140.734 97.1874 142.104 97.1652 142.339 96.4166C142.647 95.4346 139.896 95.2029 139.468 95.1728Z" fill="#FBA691"/>
<path d="M138.325 71.7181L137.685 73.3896C136.392 73.4692 134.078 73.5069 131.577 73.0335C132.043 71.739 132.467 70.6121 132.764 69.8203L136.659 70.7043L138.325 71.7181Z" fill="#FD857D"/>
<path d="M138.861 58.1272C138.861 58.1272 134.119 62.8284 130.658 71.0281C133.371 71.8953 135.939 72.5091 138.324 72.8023C138.639 72.256 139.883 68.7496 140.82 66.2197L138.861 58.1272Z" fill="#45A9EA"/>
</svg>
